<svg xmlns="http://www.w3.org/2000/svg" xmlns:xlink="http://www.w3.org/1999/xlink" width="500" zoomAndPan="magnify" viewBox="0 0 375 374.999991" height="500" preserveAspectRatio="xMidYMid meet" version="1.0"><defs><g/><clipPath id="0f764e1cee"><path d="M 117 1.035156 L 180 1.035156 L 180 38 L 117 38 Z M 117 1.035156 " clip-rule="nonzero"/></clipPath><clipPath id="4b3e3add89"><path d="M 57.246094 19 L 118 19 L 118 121 L 57.246094 121 Z M 57.246094 19 " clip-rule="nonzero"/></clipPath><clipPath id="5984c4907d"><path d="M 117.164062 61 L 192.246094 61 L 192.246094 136.035156 L 117.164062 136.035156 Z M 117.164062 61 " clip-rule="nonzero"/></clipPath><clipPath id="b140d1f36d"><path d="M 0.679688 151 L 252.199219 151 L 252.199219 197 L 0.679688 197 Z M 0.679688 151 " clip-rule="nonzero"/></clipPath><clipPath id="89c7a7b0de"><path d="M 177 0.160156 L 214 0.160156 L 214 36 L 177 36 Z M 177 0.160156 " clip-rule="nonzero"/></clipPath><clipPath id="627de7c8dc"><rect x="0" width="253" y="0" height="46"/></clipPath><clipPath id="e583cea2f6"><path d="M 17 199 L 248 199 L 248 216.441406 L 17 216.441406 Z M 17 199 " clip-rule="nonzero"/></clipPath><clipPath id="9608e7a5ed"><rect x="0" width="231" y="0" height="18"/></clipPath><clipPath id="9be4e2756d"><rect x="0" width="253" y="0" height="217"/></clipPath></defs><g transform="matrix(1, 0, 0, 1, 61, 79)"><g clip-path="url(#9be4e2756d)"><g clip-path="url(#0f764e1cee)"><path fill="#ffffff" d="M 156.941406 21.304688 C 161.660156 26.023438 165.625 31.324219 168.78125 37.117188 L 179.769531 26.128906 C 178.386719 24.460938 176.921875 22.851562 175.375 21.304688 C 169.023438 14.953125 161.625 9.964844 153.382812 6.476562 C 144.847656 2.867188 135.78125 1.035156 126.445312 1.035156 C 123.339844 1.035156 120.261719 1.238281 117.226562 1.644531 C 123.320312 2.453125 129.25 4.066406 134.949219 6.476562 C 143.1875 9.964844 150.589844 14.953125 156.941406 21.304688 " fill-opacity="1" fill-rule="nonzero"/></g><g clip-path="url(#4b3e3add89)"><path fill="#ffffff" d="M 75.683594 70.234375 C 75.683594 45.390625 93.621094 24.660156 117.226562 20.3125 C 114.238281 19.761719 111.15625 19.472656 108.007812 19.472656 C 80.019531 19.472656 57.246094 42.246094 57.246094 70.234375 C 57.246094 98.226562 80.019531 121 108.007812 121 C 111.15625 121 114.238281 120.707031 117.226562 120.15625 C 93.621094 115.808594 75.683594 95.078125 75.683594 70.234375 " fill-opacity="1" fill-rule="nonzero"/></g><g clip-path="url(#5984c4907d)"><path fill="#ffffff" d="M 195.035156 61.015625 L 144.882812 61.015625 L 126.445312 79.453125 L 176.601562 79.453125 C 175.792969 85.542969 174.175781 91.476562 171.765625 97.175781 C 168.28125 105.414062 163.292969 112.816406 156.941406 119.167969 C 150.589844 125.519531 143.1875 130.507812 134.949219 133.992188 C 129.25 136.402344 123.320312 138.019531 117.226562 138.828125 C 120.261719 139.230469 123.339844 139.433594 126.445312 139.433594 C 135.78125 139.433594 144.847656 137.605469 153.382812 133.992188 C 161.625 130.507812 169.023438 125.519531 175.375 119.167969 C 181.730469 112.816406 186.714844 105.414062 190.203125 97.175781 C 193.8125 88.636719 195.644531 79.574219 195.644531 70.234375 C 195.644531 67.128906 195.441406 64.054688 195.035156 61.015625 " fill-opacity="1" fill-rule="nonzero"/></g><g clip-path="url(#b140d1f36d)"><g transform="matrix(1, 0, 0, 1, 0, 151)"><g clip-path="url(#627de7c8dc)"><g fill="#ffffff" fill-opacity="1"><g transform="translate(1.416993, 35.055168)"><g><path d="M 19.375 0.546875 C 15.90625 0.546875 12.84375 -0.0351562 10.1875 -1.203125 C 7.539062 -2.367188 5.472656 -4.015625 3.984375 -6.140625 C 2.503906 -8.265625 1.765625 -10.785156 1.765625 -13.703125 C 1.765625 -16.640625 2.519531 -19.179688 4.03125 -21.328125 C 5.539062 -23.484375 7.628906 -25.148438 10.296875 -26.328125 C 12.960938 -27.515625 16.015625 -28.109375 19.453125 -28.109375 C 21.734375 -28.109375 23.859375 -27.914062 25.828125 -27.53125 C 27.796875 -27.15625 29.582031 -26.664062 31.1875 -26.0625 L 30.875 -20.515625 C 30.03125 -21.035156 29.023438 -21.46875 27.859375 -21.8125 C 26.691406 -22.15625 25.4375 -22.414062 24.09375 -22.59375 C 22.757812 -22.78125 21.4375 -22.875 20.125 -22.875 C 17.726562 -22.875 15.601562 -22.503906 13.75 -21.765625 C 11.90625 -21.035156 10.457031 -19.976562 9.40625 -18.59375 C 8.351562 -17.21875 7.828125 -15.585938 7.828125 -13.703125 C 7.828125 -11.867188 8.316406 -10.273438 9.296875 -8.921875 C 10.285156 -7.566406 11.660156 -6.523438 13.421875 -5.796875 C 15.179688 -5.078125 17.21875 -4.71875 19.53125 -4.71875 C 21.3125 -4.71875 23.019531 -4.992188 24.65625 -5.546875 C 26.300781 -6.097656 27.582031 -6.859375 28.5 -7.828125 L 28.5 -11.140625 L 21.859375 -11.140625 C 21.273438 -11.140625 20.613281 -11.109375 19.875 -11.046875 C 19.144531 -10.984375 18.597656 -10.882812 18.234375 -10.75 L 18.5 -16.109375 L 34.328125 -16.109375 L 34.328125 -4.765625 C 32.835938 -3.160156 30.769531 -1.875 28.125 -0.90625 C 25.488281 0.0625 22.570312 0.546875 19.375 0.546875 Z M 19.375 0.546875 "/></g></g></g><g fill="#ffffff" fill-opacity="1"><g transform="translate(37.681415, 35.055168)"><g><path d="M 3.1875 0 C 3.6875 -1.625 3.9375 -3.828125 3.9375 -6.609375 L 3.9375 -20.953125 C 3.9375 -22.285156 3.863281 -23.53125 3.71875 -24.6875 C 3.570312 -25.84375 3.394531 -26.800781 3.1875 -27.5625 L 30.15625 -27.5625 L 31.140625 -21.609375 C 30.691406 -21.828125 30.03125 -22 29.15625 -22.125 C 28.28125 -22.257812 27.160156 -22.328125 25.796875 -22.328125 L 10.046875 -22.328125 L 10.046875 -16.375 L 22.71875 -16.375 C 24.53125 -16.375 25.910156 -16.453125 26.859375 -16.609375 L 26.859375 -11.03125 C 25.910156 -11.1875 24.53125 -11.265625 22.71875 -11.265625 L 10.046875 -11.265625 L 10.046875 -5.234375 L 26.0625 -5.234375 C 27.613281 -5.234375 28.859375 -5.320312 29.796875 -5.5 C 30.742188 -5.6875 31.507812 -5.941406 32.09375 -6.265625 L 30.953125 0 Z M 3.1875 0 "/></g></g></g><g fill="#ffffff" fill-opacity="1"><g transform="translate(71.465201, 35.055168)"><g><path d="M 31.65625 0.59375 C 30.1875 0.59375 29 0.390625 28.09375 -0.015625 C 27.1875 -0.421875 26.453125 -0.960938 25.890625 -1.640625 C 25.328125 -2.328125 24.84375 -3.078125 24.4375 -3.890625 C 24.03125 -4.710938 23.617188 -5.519531 23.203125 -6.3125 C 22.796875 -7.113281 22.28125 -7.851562 21.65625 -8.53125 C 21.03125 -9.21875 20.207031 -9.765625 19.1875 -10.171875 C 18.175781 -10.578125 16.859375 -10.78125 15.234375 -10.78125 C 14.867188 -10.78125 14.332031 -10.765625 13.625 -10.734375 C 12.914062 -10.710938 12.222656 -10.679688 11.546875 -10.640625 C 10.878906 -10.609375 10.390625 -10.539062 10.078125 -10.4375 L 10.078125 -6.34375 C 10.078125 -3.6875 10.3125 -1.570312 10.78125 0 L 3.234375 0 C 3.441406 -0.789062 3.609375 -1.753906 3.734375 -2.890625 C 3.867188 -4.035156 3.9375 -5.273438 3.9375 -6.609375 L 3.9375 -20.953125 C 3.9375 -22.285156 3.867188 -23.53125 3.734375 -24.6875 C 3.609375 -25.84375 3.441406 -26.800781 3.234375 -27.5625 L 22.28125 -27.5625 C 24.488281 -27.5625 26.429688 -27.285156 28.109375 -26.734375 C 29.796875 -26.179688 31.109375 -25.367188 32.046875 -24.296875 C 32.992188 -23.222656 33.46875 -21.910156 33.46875 -20.359375 C 33.46875 -18.890625 33.019531 -17.582031 32.125 -16.4375 C 31.238281 -15.289062 30 -14.394531 28.40625 -13.75 C 26.820312 -13.113281 24.96875 -12.796875 22.84375 -12.796875 L 20.4375 -12.796875 L 20.4375 -12.484375 L 20.75 -12.484375 C 22.144531 -12.484375 23.300781 -12.3125 24.21875 -11.96875 C 25.132812 -11.625 25.894531 -11.191406 26.5 -10.671875 C 27.101562 -10.148438 27.617188 -9.59375 28.046875 -9 C 28.484375 -8.40625 28.898438 -7.84375 29.296875 -7.3125 C 29.691406 -6.789062 30.128906 -6.359375 30.609375 -6.015625 C 31.097656 -5.679688 31.695312 -5.515625 32.40625 -5.515625 C 33.476562 -5.515625 34.289062 -5.765625 34.84375 -6.265625 C 35.394531 -6.765625 35.84375 -7.429688 36.1875 -8.265625 L 36.46875 -1.453125 C 36.019531 -0.847656 35.351562 -0.359375 34.46875 0.015625 C 33.59375 0.398438 32.65625 0.59375 31.65625 0.59375 Z M 10.078125 -15.15625 L 21.375 -15.15625 C 23.1875 -15.15625 24.628906 -15.460938 25.703125 -16.078125 C 26.785156 -16.703125 27.328125 -17.578125 27.328125 -18.703125 C 27.328125 -19.804688 26.804688 -20.671875 25.765625 -21.296875 C 24.734375 -21.929688 23.363281 -22.25 21.65625 -22.25 L 10.078125 -22.25 Z M 10.078125 -15.15625 "/></g></g></g><g fill="#ffffff" fill-opacity="1"><g transform="translate(108.359621, 35.055168)"><g><path d="M -0.46875 0 C 0.0507812 -0.757812 0.671875 -1.734375 1.390625 -2.921875 C 2.117188 -4.117188 2.8125 -5.347656 3.46875 -6.609375 L 10.953125 -20.953125 C 11.609375 -22.265625 12.113281 -23.503906 12.46875 -24.671875 C 12.820312 -25.835938 13.0625 -26.800781 13.1875 -27.5625 L 22.84375 -27.5625 C 23.019531 -26.664062 23.285156 -25.613281 23.640625 -24.40625 C 23.992188 -23.195312 24.4375 -22.054688 24.96875 -20.984375 L 32.53125 -6.609375 C 33.1875 -5.328125 33.867188 -4.09375 34.578125 -2.90625 C 35.285156 -1.726562 35.898438 -0.757812 36.421875 0 L 28.703125 0 C 28.628906 -0.519531 28.457031 -1.117188 28.1875 -1.796875 C 27.925781 -2.484375 27.507812 -3.34375 26.9375 -4.375 L 25.796875 -6.453125 L 10.15625 -6.453125 L 9.015625 -4.328125 C 8.546875 -3.328125 8.148438 -2.484375 7.828125 -1.796875 C 7.515625 -1.117188 7.320312 -0.519531 7.25 0 Z M 12.4375 -11.140625 L 23.5 -11.140625 L 19.84375 -18.1875 C 19.5 -18.925781 19.195312 -19.640625 18.9375 -20.328125 C 18.675781 -21.023438 18.414062 -21.753906 18.15625 -22.515625 L 17.796875 -22.515625 C 17.535156 -21.734375 17.269531 -21 17 -20.3125 C 16.738281 -19.632812 16.425781 -18.914062 16.0625 -18.15625 Z M 12.4375 -11.140625 "/></g></g></g><g fill="#ffffff" fill-opacity="1"><g transform="translate(144.309044, 35.055168)"><g><path d="M 18.390625 7.671875 C 17.472656 7.671875 16.601562 7.546875 15.78125 7.296875 C 14.96875 7.054688 14.351562 6.773438 13.9375 6.453125 L 14.5625 4.71875 C 15.09375 5.113281 15.703125 5.410156 16.390625 5.609375 C 17.085938 5.804688 17.710938 5.90625 18.265625 5.90625 C 18.898438 5.90625 19.5 5.785156 20.0625 5.546875 C 20.625 5.316406 20.90625 4.9375 20.90625 4.40625 C 20.90625 3.539062 20.40625 3.109375 19.40625 3.109375 C 18.695312 3.109375 18.132812 3.316406 17.71875 3.734375 L 16.0625 2.90625 L 17.046875 0.390625 C 14.160156 0.0976562 11.5625 -0.628906 9.25 -1.796875 C 6.9375 -2.960938 5.109375 -4.546875 3.765625 -6.546875 C 2.429688 -8.554688 1.765625 -10.953125 1.765625 -13.734375 C 1.765625 -16.046875 2.226562 -18.09375 3.15625 -19.875 C 4.09375 -21.664062 5.378906 -23.171875 7.015625 -24.390625 C 8.660156 -25.609375 10.570312 -26.53125 12.75 -27.15625 C 14.9375 -27.789062 17.289062 -28.109375 19.8125 -28.109375 C 22.0625 -28.109375 24.191406 -27.882812 26.203125 -27.4375 C 28.210938 -27 29.898438 -26.425781 31.265625 -25.71875 L 30.75 -19.8125 C 29.644531 -20.644531 28.191406 -21.34375 26.390625 -21.90625 C 24.597656 -22.476562 22.648438 -22.765625 20.546875 -22.765625 C 18.191406 -22.765625 16.0625 -22.398438 14.15625 -21.671875 C 12.25 -20.953125 10.738281 -19.921875 9.625 -18.578125 C 8.507812 -17.242188 7.953125 -15.628906 7.953125 -13.734375 C 7.953125 -11.828125 8.53125 -10.207031 9.6875 -8.875 C 10.84375 -7.550781 12.40625 -6.539062 14.375 -5.84375 C 16.34375 -5.144531 18.5625 -4.796875 21.03125 -4.796875 C 23.226562 -4.796875 25.332031 -5.097656 27.34375 -5.703125 C 29.351562 -6.304688 31.023438 -7.132812 32.359375 -8.1875 L 32.359375 -1.84375 C 30.765625 -1.113281 28.914062 -0.53125 26.8125 -0.09375 C 24.71875 0.332031 22.421875 0.546875 19.921875 0.546875 L 19.171875 0.546875 L 18.5 2.171875 C 18.71875 2.003906 18.984375 1.890625 19.296875 1.828125 C 19.609375 1.765625 19.910156 1.734375 20.203125 1.734375 C 21.035156 1.734375 21.722656 1.972656 22.265625 2.453125 C 22.804688 2.941406 23.078125 3.609375 23.078125 4.453125 C 23.078125 5.503906 22.601562 6.300781 21.65625 6.84375 C 20.707031 7.394531 19.617188 7.671875 18.390625 7.671875 Z M 18.390625 7.671875 "/></g></g></g><g clip-path="url(#89c7a7b0de)"><g fill="#ffffff" fill-opacity="1"><g transform="translate(177.974713, 35.055168)"><g><path d="M 12.203125 -30.203125 L 11.140625 -33.3125 C 12.140625 -34.15625 13.207031 -34.554688 14.34375 -34.515625 C 15.488281 -34.472656 16.664062 -34.269531 17.875 -33.90625 C 18.664062 -33.664062 19.367188 -33.472656 19.984375 -33.328125 C 20.597656 -33.179688 21.191406 -33.175781 21.765625 -33.3125 C 22.347656 -33.445312 22.984375 -33.800781 23.671875 -34.375 L 24.84375 -31.265625 C 23.820312 -30.421875 22.726562 -30.023438 21.5625 -30.078125 C 20.394531 -30.128906 19.234375 -30.328125 18.078125 -30.671875 C 17.285156 -30.929688 16.570312 -31.125 15.9375 -31.25 C 15.3125 -31.382812 14.703125 -31.382812 14.109375 -31.25 C 13.523438 -31.125 12.890625 -30.773438 12.203125 -30.203125 Z M 0 0 C 0.519531 -0.757812 1.0625 -1.722656 1.625 -2.890625 C 2.195312 -4.054688 2.8125 -5.296875 3.46875 -6.609375 L 10.953125 -20.953125 C 11.609375 -22.265625 12.113281 -23.503906 12.46875 -24.671875 C 12.820312 -25.835938 13.0625 -26.800781 13.1875 -27.5625 L 22.84375 -27.5625 C 23.019531 -26.664062 23.285156 -25.613281 23.640625 -24.40625 C 23.992188 -23.195312 24.4375 -22.054688 24.96875 -20.984375 L 32.53125 -6.609375 C 33.1875 -5.328125 33.785156 -4.09375 34.328125 -2.90625 C 34.878906 -1.726562 35.421875 -0.757812 35.953125 0 L 28.265625 0 C 28.160156 -0.519531 28.03125 -1.117188 27.875 -1.796875 C 27.71875 -2.484375 27.40625 -3.34375 26.9375 -4.375 L 25.796875 -6.453125 L 10.15625 -6.453125 L 9.015625 -4.328125 C 8.546875 -3.328125 8.226562 -2.484375 8.0625 -1.796875 C 7.90625 -1.117188 7.789062 -0.519531 7.71875 0 Z M 12.4375 -11.140625 L 23.5 -11.140625 L 19.84375 -18.1875 C 19.5 -18.925781 19.195312 -19.640625 18.9375 -20.328125 C 18.675781 -21.023438 18.414062 -21.753906 18.15625 -22.515625 L 17.796875 -22.515625 C 17.535156 -21.734375 17.269531 -21 17 -20.3125 C 16.738281 -19.632812 16.425781 -18.914062 16.0625 -18.15625 Z M 12.4375 -11.140625 "/></g></g></g></g><g fill="#ffffff" fill-opacity="1"><g transform="translate(213.924136, 35.055168)"><g><path d="M 18.828125 0.546875 C 15.546875 0.546875 12.617188 -0.0195312 10.046875 -1.15625 C 7.472656 -2.300781 5.445312 -3.941406 3.96875 -6.078125 C 2.5 -8.222656 1.765625 -10.789062 1.765625 -13.78125 C 1.765625 -16.769531 2.5 -19.332031 3.96875 -21.46875 C 5.445312 -23.613281 7.472656 -25.253906 10.046875 -26.390625 C 12.617188 -27.535156 15.546875 -28.109375 18.828125 -28.109375 C 22.109375 -28.109375 25.03125 -27.535156 27.59375 -26.390625 C 30.164062 -25.253906 32.1875 -23.613281 33.65625 -21.46875 C 35.132812 -19.332031 35.875 -16.769531 35.875 -13.78125 C 35.875 -10.789062 35.132812 -8.222656 33.65625 -6.078125 C 32.1875 -3.941406 30.164062 -2.300781 27.59375 -1.15625 C 25.03125 -0.0195312 22.109375 0.546875 18.828125 0.546875 Z M 18.828125 -4.328125 C 20.898438 -4.328125 22.75 -4.707031 24.375 -5.46875 C 26 -6.226562 27.285156 -7.316406 28.234375 -8.734375 C 29.179688 -10.160156 29.65625 -11.84375 29.65625 -13.78125 C 29.65625 -15.75 29.179688 -17.4375 28.234375 -18.84375 C 27.285156 -20.25 26 -21.332031 24.375 -22.09375 C 22.75 -22.851562 20.898438 -23.234375 18.828125 -23.234375 C 16.773438 -23.234375 14.925781 -22.851562 13.28125 -22.09375 C 11.644531 -21.332031 10.351562 -20.25 9.40625 -18.84375 C 8.46875 -17.4375 8 -15.75 8 -13.78125 C 8 -11.84375 8.46875 -10.160156 9.40625 -8.734375 C 10.351562 -7.316406 11.644531 -6.226562 13.28125 -5.46875 C 14.925781 -4.707031 16.773438 -4.328125 18.828125 -4.328125 Z M 18.828125 -4.328125 "/></g></g></g></g></g></g><g clip-path="url(#e583cea2f6)"><g transform="matrix(1, 0, 0, 1, 17, 199)"><g clip-path="url(#9608e7a5ed)"><g fill="#ffffff" fill-opacity="1"><g transform="translate(0.357539, 13.627901)"><g><path d="M 5.65625 0.109375 C 4.707031 0.109375 3.851562 -0.0976562 3.09375 -0.515625 C 2.332031 -0.941406 1.734375 -1.519531 1.296875 -2.25 C 0.867188 -2.988281 0.65625 -3.816406 0.65625 -4.734375 C 0.65625 -5.648438 0.867188 -6.472656 1.296875 -7.203125 C 1.734375 -7.941406 2.332031 -8.519531 3.09375 -8.9375 C 3.863281 -9.351562 4.71875 -9.5625 5.65625 -9.5625 C 6.394531 -9.5625 7.070312 -9.4375 7.6875 -9.1875 C 8.300781 -8.945312 8.828125 -8.582031 9.265625 -8.09375 L 8.375 -7.25 C 7.664062 -7.988281 6.78125 -8.359375 5.71875 -8.359375 C 5.007812 -8.359375 4.367188 -8.203125 3.796875 -7.890625 C 3.234375 -7.578125 2.789062 -7.140625 2.46875 -6.578125 C 2.15625 -6.023438 2 -5.410156 2 -4.734375 C 2 -4.046875 2.15625 -3.425781 2.46875 -2.875 C 2.789062 -2.320312 3.234375 -1.882812 3.796875 -1.5625 C 4.367188 -1.25 5.007812 -1.09375 5.71875 -1.09375 C 6.769531 -1.09375 7.65625 -1.472656 8.375 -2.234375 L 9.265625 -1.375 C 8.828125 -0.894531 8.300781 -0.523438 7.6875 -0.265625 C 7.070312 -0.015625 6.394531 0.109375 5.65625 0.109375 Z M 5.65625 0.109375 "/></g></g></g><g fill="#ffffff" fill-opacity="1"><g transform="translate(20.936174, 13.627901)"><g><path d="M 5.6875 0.109375 C 4.726562 0.109375 3.863281 -0.0976562 3.09375 -0.515625 C 2.332031 -0.941406 1.734375 -1.519531 1.296875 -2.25 C 0.867188 -2.988281 0.65625 -3.816406 0.65625 -4.734375 C 0.65625 -5.640625 0.867188 -6.460938 1.296875 -7.203125 C 1.734375 -7.941406 2.332031 -8.519531 3.09375 -8.9375 C 3.863281 -9.351562 4.726562 -9.5625 5.6875 -9.5625 C 6.632812 -9.5625 7.488281 -9.351562 8.25 -8.9375 C 9.019531 -8.519531 9.617188 -7.941406 10.046875 -7.203125 C 10.484375 -6.472656 10.703125 -5.648438 10.703125 -4.734375 C 10.703125 -3.816406 10.484375 -2.988281 10.046875 -2.25 C 9.617188 -1.519531 9.019531 -0.941406 8.25 -0.515625 C 7.488281 -0.0976562 6.632812 0.109375 5.6875 0.109375 Z M 5.6875 -1.09375 C 6.382812 -1.09375 7.007812 -1.25 7.5625 -1.5625 C 8.113281 -1.882812 8.550781 -2.320312 8.875 -2.875 C 9.195312 -3.425781 9.359375 -4.046875 9.359375 -4.734375 C 9.359375 -5.410156 9.195312 -6.023438 8.875 -6.578125 C 8.550781 -7.140625 8.113281 -7.578125 7.5625 -7.890625 C 7.007812 -8.203125 6.382812 -8.359375 5.6875 -8.359375 C 5 -8.359375 4.367188 -8.203125 3.796875 -7.890625 C 3.234375 -7.578125 2.789062 -7.140625 2.46875 -6.578125 C 2.15625 -6.023438 2 -5.410156 2 -4.734375 C 2 -4.046875 2.15625 -3.425781 2.46875 -2.875 C 2.789062 -2.320312 3.234375 -1.882812 3.796875 -1.5625 C 4.367188 -1.25 5 -1.09375 5.6875 -1.09375 Z M 5.6875 -1.09375 "/></g></g></g><g fill="#ffffff" fill-opacity="1"><g transform="translate(43.094996, 13.627901)"><g><path d="M 10.1875 0 L 10.171875 -6.890625 L 6.765625 -1.15625 L 6.140625 -1.15625 L 2.71875 -6.859375 L 2.71875 0 L 1.421875 0 L 1.421875 -9.46875 L 2.53125 -9.46875 L 6.46875 -2.8125 L 10.359375 -9.46875 L 11.46875 -9.46875 L 11.484375 0 Z M 10.1875 0 "/></g></g></g><g fill="#ffffff" fill-opacity="1"><g transform="translate(66.806981, 13.627901)"><g><path d="M 5.109375 -9.46875 C 6.335938 -9.46875 7.300781 -9.171875 8 -8.578125 C 8.707031 -7.992188 9.0625 -7.1875 9.0625 -6.15625 C 9.0625 -5.132812 8.707031 -4.328125 8 -3.734375 C 7.300781 -3.148438 6.335938 -2.859375 5.109375 -2.859375 L 2.765625 -2.859375 L 2.765625 0 L 1.421875 0 L 1.421875 -9.46875 Z M 5.0625 -4.046875 C 5.925781 -4.046875 6.582031 -4.226562 7.03125 -4.59375 C 7.476562 -4.957031 7.703125 -5.476562 7.703125 -6.15625 C 7.703125 -6.84375 7.476562 -7.367188 7.03125 -7.734375 C 6.582031 -8.097656 5.925781 -8.28125 5.0625 -8.28125 L 2.765625 -8.28125 L 2.765625 -4.046875 Z M 5.0625 -4.046875 "/></g></g></g><g fill="#ffffff" fill-opacity="1"><g transform="translate(87.372113, 13.627901)"><g><path d="M 7.75 0 L 5.703125 -2.90625 C 5.453125 -2.882812 5.253906 -2.875 5.109375 -2.875 L 2.765625 -2.875 L 2.765625 0 L 1.421875 0 L 1.421875 -9.46875 L 5.109375 -9.46875 C 6.335938 -9.46875 7.300781 -9.171875 8 -8.578125 C 8.707031 -7.992188 9.0625 -7.1875 9.0625 -6.15625 C 9.0625 -5.425781 8.878906 -4.804688 8.515625 -4.296875 C 8.148438 -3.785156 7.632812 -3.410156 6.96875 -3.171875 L 9.21875 0 Z M 5.0625 -4.03125 C 5.925781 -4.03125 6.582031 -4.210938 7.03125 -4.578125 C 7.476562 -4.953125 7.703125 -5.476562 7.703125 -6.15625 C 7.703125 -6.84375 7.476562 -7.367188 7.03125 -7.734375 C 6.582031 -8.097656 5.925781 -8.28125 5.0625 -8.28125 L 2.765625 -8.28125 L 2.765625 -4.03125 Z M 5.0625 -4.03125 "/></g></g></g><g fill="#ffffff" fill-opacity="1"><g transform="translate(108.004779, 13.627901)"><g><path d="M 5.6875 0.109375 C 4.726562 0.109375 3.863281 -0.0976562 3.09375 -0.515625 C 2.332031 -0.941406 1.734375 -1.519531 1.296875 -2.25 C 0.867188 -2.988281 0.65625 -3.816406 0.65625 -4.734375 C 0.65625 -5.640625 0.867188 -6.460938 1.296875 -7.203125 C 1.734375 -7.941406 2.332031 -8.519531 3.09375 -8.9375 C 3.863281 -9.351562 4.726562 -9.5625 5.6875 -9.5625 C 6.632812 -9.5625 7.488281 -9.351562 8.25 -8.9375 C 9.019531 -8.519531 9.617188 -7.941406 10.046875 -7.203125 C 10.484375 -6.472656 10.703125 -5.648438 10.703125 -4.734375 C 10.703125 -3.816406 10.484375 -2.988281 10.046875 -2.25 C 9.617188 -1.519531 9.019531 -0.941406 8.25 -0.515625 C 7.488281 -0.0976562 6.632812 0.109375 5.6875 0.109375 Z M 5.6875 -1.09375 C 6.382812 -1.09375 7.007812 -1.25 7.5625 -1.5625 C 8.113281 -1.882812 8.550781 -2.320312 8.875 -2.875 C 9.195312 -3.425781 9.359375 -4.046875 9.359375 -4.734375 C 9.359375 -5.410156 9.195312 -6.023438 8.875 -6.578125 C 8.550781 -7.140625 8.113281 -7.578125 7.5625 -7.890625 C 7.007812 -8.203125 6.382812 -8.359375 5.6875 -8.359375 C 5 -8.359375 4.367188 -8.203125 3.796875 -7.890625 C 3.234375 -7.578125 2.789062 -7.140625 2.46875 -6.578125 C 2.15625 -6.023438 2 -5.410156 2 -4.734375 C 2 -4.046875 2.15625 -3.425781 2.46875 -2.875 C 2.789062 -2.320312 3.234375 -1.882812 3.796875 -1.5625 C 4.367188 -1.25 5 -1.09375 5.6875 -1.09375 Z M 5.6875 -1.09375 "/></g></g></g><g fill="#ffffff" fill-opacity="1"><g transform="translate(130.163601, 13.627901)"><g><path d="M 10.1875 0 L 10.171875 -6.890625 L 6.765625 -1.15625 L 6.140625 -1.15625 L 2.71875 -6.859375 L 2.71875 0 L 1.421875 0 L 1.421875 -9.46875 L 2.53125 -9.46875 L 6.46875 -2.8125 L 10.359375 -9.46875 L 11.46875 -9.46875 L 11.484375 0 Z M 10.1875 0 "/></g></g></g><g fill="#ffffff" fill-opacity="1"><g transform="translate(153.875586, 13.627901)"><g><path d="M 1.421875 -9.46875 L 2.765625 -9.46875 L 2.765625 0 L 1.421875 0 Z M 1.421875 -9.46875 "/></g></g></g><g fill="#ffffff" fill-opacity="1"><g transform="translate(168.876329, 13.627901)"><g><path d="M 4.171875 0.109375 C 3.460938 0.109375 2.773438 0 2.109375 -0.21875 C 1.453125 -0.4375 0.929688 -0.722656 0.546875 -1.078125 L 1.046875 -2.140625 C 1.410156 -1.816406 1.875 -1.550781 2.4375 -1.34375 C 3 -1.144531 3.578125 -1.046875 4.171875 -1.046875 C 4.960938 -1.046875 5.550781 -1.175781 5.9375 -1.4375 C 6.320312 -1.707031 6.515625 -2.0625 6.515625 -2.5 C 6.515625 -2.820312 6.40625 -3.082031 6.1875 -3.28125 C 5.976562 -3.488281 5.71875 -3.644531 5.40625 -3.75 C 5.101562 -3.863281 4.664062 -3.988281 4.09375 -4.125 C 3.382812 -4.289062 2.8125 -4.457031 2.375 -4.625 C 1.9375 -4.800781 1.5625 -5.066406 1.25 -5.421875 C 0.9375 -5.773438 0.78125 -6.253906 0.78125 -6.859375 C 0.78125 -7.367188 0.910156 -7.828125 1.171875 -8.234375 C 1.441406 -8.640625 1.847656 -8.960938 2.390625 -9.203125 C 2.929688 -9.441406 3.601562 -9.5625 4.40625 -9.5625 C 4.96875 -9.5625 5.515625 -9.488281 6.046875 -9.34375 C 6.585938 -9.207031 7.054688 -9.003906 7.453125 -8.734375 L 7 -7.65625 C 6.601562 -7.90625 6.179688 -8.09375 5.734375 -8.21875 C 5.285156 -8.351562 4.84375 -8.421875 4.40625 -8.421875 C 3.632812 -8.421875 3.054688 -8.28125 2.671875 -8 C 2.296875 -7.71875 2.109375 -7.359375 2.109375 -6.921875 C 2.109375 -6.597656 2.210938 -6.332031 2.421875 -6.125 C 2.640625 -5.925781 2.910156 -5.769531 3.234375 -5.65625 C 3.554688 -5.539062 3.992188 -5.421875 4.546875 -5.296875 C 5.253906 -5.128906 5.820312 -4.957031 6.25 -4.78125 C 6.6875 -4.613281 7.0625 -4.351562 7.375 -4 C 7.6875 -3.644531 7.84375 -3.171875 7.84375 -2.578125 C 7.84375 -2.085938 7.707031 -1.632812 7.4375 -1.21875 C 7.164062 -0.8125 6.753906 -0.488281 6.203125 -0.25 C 5.648438 -0.0078125 4.972656 0.109375 4.171875 0.109375 Z M 4.171875 0.109375 "/></g></g></g><g fill="#ffffff" fill-opacity="1"><g transform="translate(188.077383, 13.627901)"><g><path d="M 4.171875 0.109375 C 3.460938 0.109375 2.773438 0 2.109375 -0.21875 C 1.453125 -0.4375 0.929688 -0.722656 0.546875 -1.078125 L 1.046875 -2.140625 C 1.410156 -1.816406 1.875 -1.550781 2.4375 -1.34375 C 3 -1.144531 3.578125 -1.046875 4.171875 -1.046875 C 4.960938 -1.046875 5.550781 -1.175781 5.9375 -1.4375 C 6.320312 -1.707031 6.515625 -2.0625 6.515625 -2.5 C 6.515625 -2.820312 6.40625 -3.082031 6.1875 -3.28125 C 5.976562 -3.488281 5.71875 -3.644531 5.40625 -3.75 C 5.101562 -3.863281 4.664062 -3.988281 4.09375 -4.125 C 3.382812 -4.289062 2.8125 -4.457031 2.375 -4.625 C 1.9375 -4.800781 1.5625 -5.066406 1.25 -5.421875 C 0.9375 -5.773438 0.78125 -6.253906 0.78125 -6.859375 C 0.78125 -7.367188 0.910156 -7.828125 1.171875 -8.234375 C 1.441406 -8.640625 1.847656 -8.960938 2.390625 -9.203125 C 2.929688 -9.441406 3.601562 -9.5625 4.40625 -9.5625 C 4.96875 -9.5625 5.515625 -9.488281 6.046875 -9.34375 C 6.585938 -9.207031 7.054688 -9.003906 7.453125 -8.734375 L 7 -7.65625 C 6.601562 -7.90625 6.179688 -8.09375 5.734375 -8.21875 C 5.285156 -8.351562 4.84375 -8.421875 4.40625 -8.421875 C 3.632812 -8.421875 3.054688 -8.28125 2.671875 -8 C 2.296875 -7.71875 2.109375 -7.359375 2.109375 -6.921875 C 2.109375 -6.597656 2.210938 -6.332031 2.421875 -6.125 C 2.640625 -5.925781 2.910156 -5.769531 3.234375 -5.65625 C 3.554688 -5.539062 3.992188 -5.421875 4.546875 -5.296875 C 5.253906 -5.128906 5.820312 -4.957031 6.25 -4.78125 C 6.6875 -4.613281 7.0625 -4.351562 7.375 -4 C 7.6875 -3.644531 7.84375 -3.171875 7.84375 -2.578125 C 7.84375 -2.085938 7.707031 -1.632812 7.4375 -1.21875 C 7.164062 -0.8125 6.753906 -0.488281 6.203125 -0.25 C 5.648438 -0.0078125 4.972656 0.109375 4.171875 0.109375 Z M 4.171875 0.109375 "/></g></g></g><g fill="#ffffff" fill-opacity="1"><g transform="translate(207.278436, 13.627901)"><g><path d="M 5.6875 0.109375 C 4.726562 0.109375 3.863281 -0.0976562 3.09375 -0.515625 C 2.332031 -0.941406 1.734375 -1.519531 1.296875 -2.25 C 0.867188 -2.988281 0.65625 -3.816406 0.65625 -4.734375 C 0.65625 -5.640625 0.867188 -6.460938 1.296875 -7.203125 C 1.734375 -7.941406 2.332031 -8.519531 3.09375 -8.9375 C 3.863281 -9.351562 4.726562 -9.5625 5.6875 -9.5625 C 6.632812 -9.5625 7.488281 -9.351562 8.25 -8.9375 C 9.019531 -8.519531 9.617188 -7.941406 10.046875 -7.203125 C 10.484375 -6.472656 10.703125 -5.648438 10.703125 -4.734375 C 10.703125 -3.816406 10.484375 -2.988281 10.046875 -2.25 C 9.617188 -1.519531 9.019531 -0.941406 8.25 -0.515625 C 7.488281 -0.0976562 6.632812 0.109375 5.6875 0.109375 Z M 5.6875 -1.09375 C 6.382812 -1.09375 7.007812 -1.25 7.5625 -1.5625 C 8.113281 -1.882812 8.550781 -2.320312 8.875 -2.875 C 9.195312 -3.425781 9.359375 -4.046875 9.359375 -4.734375 C 9.359375 -5.410156 9.195312 -6.023438 8.875 -6.578125 C 8.550781 -7.140625 8.113281 -7.578125 7.5625 -7.890625 C 7.007812 -8.203125 6.382812 -8.359375 5.6875 -8.359375 C 5 -8.359375 4.367188 -8.203125 3.796875 -7.890625 C 3.234375 -7.578125 2.789062 -7.140625 2.46875 -6.578125 C 2.15625 -6.023438 2 -5.410156 2 -4.734375 C 2 -4.046875 2.15625 -3.425781 2.46875 -2.875 C 2.789062 -2.320312 3.234375 -1.882812 3.796875 -1.5625 C 4.367188 -1.25 5 -1.09375 5.6875 -1.09375 Z M 5.6875 -1.09375 "/></g></g></g></g></g></g></g></g></svg>